<svg id="visual" viewBox="0 0 900 600" width="900" height="600" xmlns="http://www.w3.org/2000/svg" xmlns:xlink="http://www.w3.org/1999/xlink" version="1.1"><rect x="0" y="0" width="900" height="600" fill="#e6e6e6"></rect><g transform="translate(464.33029462232827 280.85504654024027)"><path d="M166.8 -220C229.7 -183.8 303.6 -153.2 342.7 -96.4C381.7 -39.6 385.8 43.6 337.2 83.7C288.6 123.8 187.2 121 122.2 148C57.2 175.1 28.6 232 -30.1 273.4C-88.8 314.8 -177.5 340.7 -224.4 307.7C-271.3 274.8 -276.4 183.1 -315.3 95C-354.1 6.9 -426.7 -77.7 -392.6 -110.6C-358.6 -143.6 -217.9 -124.9 -134.7 -154.5C-51.4 -184.1 -25.7 -262.1 13.1 -280.1C51.9 -298.1 103.8 -256.3 166.8 -220" fill="#6c63ff"></path></g></svg>